<svg width="299" height="174" viewBox="0 0 299 174" fill="none" xmlns="http://www.w3.org/2000/svg">
<path fill-rule="evenodd" clip-rule="evenodd" d="M41.4562 0.277913H257.391C262.114 0.277913 263.439 0.277913 265.473 0.961609C267.877 1.84021 269.781 3.74486 270.66 6.1488C271.344 8.18236 271.344 9.50764 271.344 14.231C271.344 27.3123 271.344 157.638 271.344 157.638C271.344 162.362 271.344 163.687 270.66 165.721C269.781 168.125 267.877 170.029 265.473 170.908C263.439 171.592 262.114 171.592 257.391 171.592C244.309 171.592 41.4562 171.592 41.4562 171.592C36.733 171.592 35.4075 171.592 33.3742 170.908C30.9701 170.029 29.0655 168.125 28.1869 165.721C27.5032 163.687 27.5032 162.362 27.5032 157.638C27.5032 144.557 27.5032 14.231 27.5032 14.231C27.5032 9.50764 27.5032 8.18236 28.1869 6.1488C29.0655 3.74486 30.9701 1.84021 33.3742 0.961609C35.4075 0.277913 36.733 0.277913 41.4562 0.277913Z" fill="url(#paint0_linear_65_4955)"/>
<path fill-rule="evenodd" clip-rule="evenodd" d="M41.8095 1.13533H256.873C261.577 1.13533 262.897 1.13533 264.922 1.8115C267.316 2.68043 269.213 4.56413 270.088 6.94161C270.769 8.95279 270.769 10.2635 270.769 14.9348C270.769 27.8722 270.769 156.764 270.769 156.764C270.769 161.436 270.769 162.746 270.088 164.757C269.213 167.135 267.316 169.019 264.922 169.888C262.897 170.564 261.577 170.564 256.873 170.564C243.844 170.564 41.8095 170.564 41.8095 170.564C37.1054 170.564 35.7852 170.564 33.7601 169.888C31.3657 169.019 29.4688 167.135 28.5938 164.757C27.9128 162.746 27.9128 161.436 27.9128 156.764C27.9128 143.827 27.9128 14.9348 27.9128 14.9348C27.9128 10.2635 27.9128 8.95279 28.5938 6.94161C29.4688 4.56413 31.3657 2.68043 33.7601 1.8115C35.7852 1.13533 37.1054 1.13533 41.8095 1.13533Z" stroke="#F3F3F3" stroke-width="2"/>
<path fill-rule="evenodd" clip-rule="evenodd" d="M149.014 6.11306C149.513 6.11306 149.917 6.5174 149.917 7.01618C149.917 7.51496 149.513 7.91929 149.014 7.91929C148.515 7.91929 148.111 7.51496 148.111 7.01618C148.111 6.5174 148.515 6.11306 149.014 6.11306Z" fill="#F2F2F2"/>
<g filter="url(#filter0_i_65_4955)">
<path fill-rule="evenodd" clip-rule="evenodd" d="M0.278066 165.895H298.722V167.563H0.278066V165.895Z" fill="white"/>
<path fill-rule="evenodd" clip-rule="evenodd" d="M0.278066 165.895H298.722V167.563H0.278066V165.895Z" fill="url(#paint1_linear_65_4955)" style="mix-blend-mode:multiply"/>
</g>
<g style="mix-blend-mode:multiply" opacity="0.1">
<path fill-rule="evenodd" clip-rule="evenodd" d="M287.607 165.895H298.722V167.562H287.607V165.895Z" fill="url(#paint2_linear_65_4955)"/>
</g>
<g style="mix-blend-mode:multiply" opacity="0.1">
<path fill-rule="evenodd" clip-rule="evenodd" d="M0.278099 165.895H11.3933V167.563H0.278099V165.895Z" fill="url(#paint3_linear_65_4955)"/>
</g>
<path fill-rule="evenodd" clip-rule="evenodd" d="M0.277771 167.562H298.722C296.958 168.664 281.314 173.182 229.252 172.008C224.654 172.008 95.0811 171.869 66.6913 171.869C33.7424 171.869 20.1027 172.002 7.6535 169.603C3.29528 168.763 1.11288 168.07 0.277771 167.562Z" fill="white"/>
<path fill-rule="evenodd" clip-rule="evenodd" d="M0.277771 167.562H298.722C296.958 168.664 281.314 173.182 229.252 172.008C224.654 172.008 95.0811 171.869 66.6913 171.869C33.7424 171.869 20.1027 172.002 7.6535 169.603C3.29528 168.763 1.11288 168.07 0.277771 167.562Z" fill="url(#paint4_linear_65_4955)" style="mix-blend-mode:multiply"/>
<path fill-rule="evenodd" clip-rule="evenodd" d="M0.277771 167.562H298.722C296.958 168.664 281.314 173.182 229.252 172.008C224.654 172.008 95.0811 171.869 66.6913 171.869C33.7424 171.869 20.1027 172.002 7.6535 169.603C3.29528 168.763 1.11288 168.07 0.277771 167.562Z" fill="url(#paint5_linear_65_4955)" style="mix-blend-mode:multiply"/>
<path fill-rule="evenodd" clip-rule="evenodd" d="M0.277771 167.562H298.722C296.958 168.664 281.314 173.182 229.252 172.008C224.654 172.008 95.0811 171.869 66.6913 171.869C33.7424 171.869 20.1027 172.002 7.6535 169.603C3.29528 168.763 1.11288 168.07 0.277771 167.562Z" fill="url(#paint6_linear_65_4955)" style="mix-blend-mode:multiply"/>
<path fill-rule="evenodd" clip-rule="evenodd" d="M0.277771 167.562H298.722C296.958 168.664 281.314 173.182 229.252 172.008C224.654 172.008 95.0811 171.869 66.6913 171.869C33.7424 171.869 20.1027 172.002 7.6535 169.603C3.29528 168.763 1.11288 168.07 0.277771 167.562Z" fill="url(#paint7_linear_65_4955)" style="mix-blend-mode:multiply"/>
<path fill-rule="evenodd" clip-rule="evenodd" d="M0.277771 167.562H298.722C296.958 168.664 281.314 173.182 229.252 172.008C224.654 172.008 95.0811 171.869 66.6913 171.869C33.7424 171.869 20.1027 172.002 7.6535 169.603C3.29528 168.763 1.11288 168.07 0.277771 167.562Z" fill="url(#paint8_linear_65_4955)"/>
<g filter="url(#filter1_i_65_4955)">
<path fill-rule="evenodd" clip-rule="evenodd" d="M120.878 165.895H126.436H172.425H177.983V167.423C177.983 168.009 172.425 168.118 172.425 168.118H126.436C126.436 168.118 120.878 168.009 120.878 167.423V165.895Z" fill="white"/>
</g>
<g style="mix-blend-mode:multiply" opacity="0.07">
<path fill-rule="evenodd" clip-rule="evenodd" d="M120.878 165.895H126.436V168.118C126.436 168.118 120.878 168.009 120.878 167.423C120.878 166.837 120.878 165.895 120.878 165.895Z" fill="url(#paint9_linear_65_4955)"/>
</g>
<g style="mix-blend-mode:multiply" opacity="0.07">
<path fill-rule="evenodd" clip-rule="evenodd" d="M177.983 165.895H172.425V168.118C172.425 168.118 177.983 168.009 177.983 167.423C177.983 166.837 177.983 165.895 177.983 165.895Z" fill="url(#paint10_linear_65_4955)"/>
</g>
<path d="M36.6147 9.72062H35.0822V11.2532V152.361V153.893H36.6147H262.387H263.92V152.361V11.2532V9.72062H262.387H36.6147Z" stroke="#E1E1E1" stroke-width="3.0651"/>
<defs>
<filter id="filter0_i_65_4955" x="0.277832" y="165.895" width="298.444" height="1.66736" filterUnits="userSpaceOnUse" color-interpolation-filters="sRGB">
<feFlood flood-opacity="0" result="BackgroundImageFix"/>
<feBlend mode="normal" in="SourceGraphic" in2="BackgroundImageFix" result="shape"/>
<feColorMatrix in="SourceAlpha" type="matrix" values="0 0 0 0 0 0 0 0 0 0 0 0 0 0 0 0 0 0 127 0" result="hardAlpha"/>
<feOffset dy="1.53255"/>
<feComposite in2="hardAlpha" operator="arithmetic" k2="-1" k3="1"/>
<feColorMatrix type="matrix" values="0 0 0 0 0 0 0 0 0 0 0 0 0 0 0 0 0 0 0.02 0"/>
<feBlend mode="normal" in2="shape" result="effect1_innerShadow_65_4955"/>
</filter>
<filter id="filter1_i_65_4955" x="120.878" y="165.895" width="57.1045" height="2.22302" filterUnits="userSpaceOnUse" color-interpolation-filters="sRGB">
<feFlood flood-opacity="0" result="BackgroundImageFix"/>
<feBlend mode="normal" in="SourceGraphic" in2="BackgroundImageFix" result="shape"/>
<feColorMatrix in="SourceAlpha" type="matrix" values="0 0 0 0 0 0 0 0 0 0 0 0 0 0 0 0 0 0 127 0" result="hardAlpha"/>
<feOffset dy="1.53255"/>
<feComposite in2="hardAlpha" operator="arithmetic" k2="-1" k3="1"/>
<feColorMatrix type="matrix" values="0 0 0 0 0 0 0 0 0 0 0 0 0 0 0 0 0 0 0.03 0"/>
<feBlend mode="normal" in2="shape" result="effect1_innerShadow_65_4955"/>
</filter>
<linearGradient id="paint0_linear_65_4955" x1="149.424" y1="0" x2="149.424" y2="171.869" gradientUnits="userSpaceOnUse">
<stop offset="0.880227" stop-color="white"/>
<stop offset="1" stop-color="#F8F8F8"/>
</linearGradient>
<linearGradient id="paint1_linear_65_4955" x1="0.13916" y1="167.702" x2="298.861" y2="167.702" gradientUnits="userSpaceOnUse">
<stop stop-opacity="0.04"/>
<stop offset="1" stop-color="white" stop-opacity="0.04"/>
</linearGradient>
<linearGradient id="paint2_linear_65_4955" x1="301.677" y1="165.516" x2="287.468" y2="165.516" gradientUnits="userSpaceOnUse">
<stop/>
<stop offset="1" stop-color="white"/>
<stop offset="1" stop-color="white"/>
</linearGradient>
<linearGradient id="paint3_linear_65_4955" x1="0.13916" y1="167.702" x2="11.5323" y2="167.702" gradientUnits="userSpaceOnUse">
<stop/>
<stop offset="1" stop-color="white"/>
<stop offset="1" stop-color="white"/>
</linearGradient>
<linearGradient id="paint4_linear_65_4955" x1="0" y1="173.398" x2="299" y2="173.398" gradientUnits="userSpaceOnUse">
<stop stop-opacity="0.07"/>
<stop offset="1" stop-color="#EAEAEA" stop-opacity="0.07"/>
<stop offset="1" stop-color="white" stop-opacity="0.07"/>
</linearGradient>
<linearGradient id="paint5_linear_65_4955" x1="0" y1="173.398" x2="299" y2="173.398" gradientUnits="userSpaceOnUse">
<stop stop-opacity="0.07"/>
<stop offset="1" stop-color="#EAEAEA" stop-opacity="0.07"/>
<stop offset="1" stop-color="white" stop-opacity="0.07"/>
</linearGradient>
<linearGradient id="paint6_linear_65_4955" x1="0" y1="167.284" x2="0" y2="173.398" gradientUnits="userSpaceOnUse">
<stop stop-opacity="0.07"/>
<stop offset="1" stop-color="white" stop-opacity="0.07"/>
</linearGradient>
<linearGradient id="paint7_linear_65_4955" x1="0" y1="167.284" x2="0" y2="173.398" gradientUnits="userSpaceOnUse">
<stop stop-color="white" stop-opacity="0.05"/>
<stop offset="1" stop-opacity="0.05"/>
</linearGradient>
<linearGradient id="paint8_linear_65_4955" x1="149.5" y1="167.284" x2="149.611" y2="177.329" gradientUnits="userSpaceOnUse">
<stop stop-color="#F9F9F9"/>
<stop offset="1" stop-color="#E8E8E8" stop-opacity="0"/>
</linearGradient>
<linearGradient id="paint9_linear_65_4955" x1="120.601" y1="168.257" x2="126.575" y2="168.257" gradientUnits="userSpaceOnUse">
<stop/>
<stop offset="1" stop-color="white"/>
<stop offset="1" stop-color="white"/>
</linearGradient>
<linearGradient id="paint10_linear_65_4955" x1="178.122" y1="165.617" x2="172.286" y2="165.617" gradientUnits="userSpaceOnUse">
<stop/>
<stop offset="1" stop-color="white"/>
<stop offset="1" stop-color="white"/>
</linearGradient>
</defs>
</svg>
